# AST/ASF file generated using VICON BodyLanguage
# -----------------------------------------------
:version 1.10
:name VICON
:units
  mass 1.0
  length 0.45
  angle deg
:documentation
   .ast/.asf automatically generated from VICON data using
   VICON BodyBuilder and BodyLanguage model FoxedUp or BRILLIANT.MOD
:root
   order TX TY TZ RX RY RZ
   axis XYZ
   position 0 0 0  
   orientation 0 0 0 
:bonedata
  begin
     id 1 
     name lhipjoint
     direction 0.610259 -0.730986 0.305356 
     length 2.50941 
     axis 0 0 0  XYZ
  end
  begin
     id 2 
     name lfemur
     direction 0.34202 -0.939693 0  
     length 7.48822  
     axis 0 0 20  XYZ
    dof rx ry rz
    limits (-160.0 20.0)
           (-70.0 70.0)
           (-60.0 70.0)
  end
  begin
     id 3 
     name ltibia
     direction 0.34202 -0.939693 0   
     length 7.60141   
     axis 0 0 20   XYZ
    dof rx
    limits (-10.0 170.0)
  end
  begin
     id 4 
     name lfoot
     direction 0.0673488 -0.185039 0.980421   
     length 2.04049   
     axis -90 7.62852e-016 20   XYZ
    dof rx rz
    limits (-45.0 90.0)
           (-70.0 20.0)
  end
  begin
     id 5 
     name ltoes
     direction 1.5356e-011 -4.21729e-011 1   
     length 1.02897   
     axis -90 7.62852e-016 20   XYZ
    dof rx
    limits (-90.0 20.0)
  end
  begin
     id 6 
     name rhipjoint
     direction -0.57612 -0.754205 0.315056   
     length 2.43216  
     axis 0 0 0  XYZ 
  end
  begin
     id 7 
     name rfemur
     direction -0.34202 -0.939693 0   
     length 7.42799   
     axis 0 0 -20   XYZ
    dof rx ry rz
    limits (-160.0 20.0)
           (-70.0 70.0)
           (-70.0 60.0)
  end
  begin
     id 8 
     name rtibia
     direction -0.34202 -0.939693 0   
     length 7.69484   
     axis 0 0 -20   XYZ
    dof rx
    limits (-10.0 170.0)
 end
 begin
     id 9 
     name rfoot
     direction -0.111837 -0.30727 0.945028   
     length 2.15769  
     axis -90 -7.62852e-016 -20   XYZ
    dof rx rz
    limits (-45.0 90.0)
           (-20.0 70.0)
  end
  begin
     id 10 
     name rtoes
     direction -1.53539e-011 -4.21878e-011 1   
     length 1.07391   
     axis -90 -7.62852e-016 -20   XYZ
    dof rx
    limits (-90.0 20.0)
  end
  begin
     id 11 
     name lowerback
     direction 0.00552624 0.990109 -0.140195   
     length 2.12403   
     axis 0 0 0   XYZ
    dof rx ry rz
    limits (-20.0 45.0)
           (-30.0 30.0)
           (-30.0 30.0)
  end
  begin
     id 12 
     name upperback
     direction 0.00361898 0.999976 -0.00584723   
     length 2.13232   
     axis 0 0 0   XYZ
    dof rx ry rz
    limits (-20.0 45.0)
           (-30.0 30.0)
           (-30.0 30.0)
  end
  begin
     id 13 
     name thorax
     direction -0.000331275 0.998253 0.0590847   
     length 2.17688   
     axis 0 0 0   XYZ
    dof rx ry rz
    limits (-20.0 45.0)
           (-30.0 30.0)
           (-30.0 30.0)
  end
  begin
     id 14 
     name lowerneck
     direction -0.0561561 0.979832 0.19177   
     length 1.64159   
     axis 0 0 0   XYZ
    dof rx ry rz
    limits (-20.0 45.0)
           (-30.0 30.0)
           (-30.0 30.0)
  end
  begin
     id 15 
     name upperneck
     direction 0.0827153 0.979385 -0.184293   
     length 1.68939   
     axis 0 0 0   XYZ
    dof rx ry rz
    limits (-20.0 45.0)
           (-30.0 30.0)
           (-30.0 30.0)
  end
  begin
     id 16
     name head
     direction 0.0278583 0.995936 -0.0856488  
     length 1.70207  
     axis 0 0 0   XYZ
    dof rx ry rz
    limits (-20.0 45.0)
           (-30.0 30.0)
           (-30.0 30.0)
  end
  begin
     id 17 
     name lclavicle
     direction 0.950993 0.301131 -0.0702275  
     length 3.41652  
     axis 0 0 0   XYZ
    dof ry rz
    limits (-20.0 10.0)
           (0.0 20.0)
  end
  begin
     id 18 
     name lhumerus
     direction 1 -4.48981e-011 -3.9662e-029   
     length 5.32955   
     axis 180 -30 -90   XYZ
    dof rx ry rz
    limits (-60.0 90.0)
           (-90.0 90.0)
           (-90.0 90.0)
  end
  begin
     id 19
     name lradius
     direction 1 -4.48925e-011 -9.0549e-027   
     length 3.69232   
     axis 180 -30 -90   XYZ
    dof rx
    limits (-10.0 170.0)
  end
  begin
     id 20
     name lwrist
     direction 1 -4.49007e-011 -1.49005e-026   
     length 1.84616   
     axis 9.0955e-015 90 90   XYZ
    dof ry
    limits (-180.0 0.0)
 end
  begin
     id 21 
     name lhand
     direction 1 -4.49016e-011 -2.98023e-026   
     length 0.536598   
     axis 1.90115e-014 90 90   XYZ
    dof rx rz
    limits (-90.0 90.0)
           (-45.0 45.0)
  end
  begin
     id 22 
     name lfingers
     direction 1 -4.48924e-011 -5.9578e-026   
     length 0.432619   
     axis 3.80223e-014 90 90   XYZ
    dof rx
    limits (0.0 90.0)
  end
  begin
     id 23
     name lthumb
     direction 0.707107 -6.34947e-011 0.707107   
     length 0.621157   
     axis -90 45 -3.84942e-014   XYZ
    dof rx rz
    limits (-45.0 45.0)
           (-45.0 45.0)
  end
  begin
     id 24 
     name rclavicle
     direction -0.955495 0.276497 -0.102848   
     length 3.36357  
     axis 0 0 0   XYZ 
    dof ry rz
    limits (-10.0 20.0)
           (-20.0 0.0)
  end
  begin
     id 25 
     name rhumerus
     direction -1 -4.48961e-011 3.30983e-027  
     length 5.23431   
     axis 180 30 90   XYZ
    dof rx ry rz
    limits (-90.0 60.0)
           (-90.0 90.0)
           (-90.0 90.0)
  end
  begin
     id 26 
     name rradius
     direction -1 -4.48965e-011 -6.63263e-027   
     length 3.55301   
     axis 180 30 90   XYZ
    dof rx
    limits (-10.0 170.0)
  end
  begin
     id 27 
     name rwrist
     direction -1 -4.48942e-011 -1.48958e-026   
     length 1.77651   
     axis 9.0955e-015 -90 -90   XYZ
    dof ry
    limits (-180.0 0.0)
  end
  begin
     id 28
     name rhand
     direction -1 -4.48977e-011 -2.97966e-026   
     length 0.772522   
     axis 1.90115e-014 -90 -90   XYZ
    dof rx rz
    limits (-90.0 90.0)
           (-45.0 45.0)
  end
  begin
     id 29
     name rfingers
     direction -1 -4.49135e-011 -5.96389e-026   
     length 0.622827   
     axis 3.80223e-014 -90 -90   XYZ
    dof rx
    limits (0.0 90.0)
  end
  begin
     id 30
     name rthumb
     direction -0.707107 -6.34969e-011 0.707107   
     length 0.894259   
     axis -90 -45 3.84942e-014   XYZ
    dof rx rz
    limits (-45.0 45.0)
           (-45.0 45.0)
  end
:hierarchy
  begin
    root lhipjoint rhipjoint lowerback
    lhipjoint lfemur
    lfemur ltibia
    ltibia lfoot
    lfoot ltoes
    rhipjoint rfemur
    rfemur rtibia
    rtibia rfoot
    rfoot rtoes
    lowerback upperback
    upperback thorax
    thorax lowerneck lclavicle rclavicle
    lowerneck upperneck
    upperneck head
    lclavicle lhumerus
    lhumerus lradius
    lradius lwrist
    lwrist lhand lthumb
    lhand lfingers
    rclavicle rhumerus
    rhumerus rradius
    rradius rwrist
    rwrist rhand rthumb
    rhand rfingers
  end

#!OML:ASF F:\VICON\USERDATA\INSTALL\rory3\rory3.ASF
:FULLY-SPECIFIED
:DEGREES
62
root -14.3204 17.9081 -9.30818 -0.611768 52.3427 -1.35354
lowerback 13.2806 2.08466 3.08787
upperback 1.80972 3.3829 2.09156
thorax -5.48239 1.63938 -0.142022
lowerneck -16.6314 -2.62507 -9.98684
upperneck 34.4568 -1.99284 5.7806
head 14.9454 -1.13155 3.88976
rclavicle 9.66093e-014 7.95139e-015
rhumerus -24.3192 -11.6377 -74.1724
rradius 28.0179
rwrist 5.93708
rhand -17.3296 5.69304
rfingers 7.12502
rthumb 8.91729 -24.0985
lclavicle 9.66093e-014 7.95139e-015
lhumerus -28.1311 -4.80091 83.1586
lradius 38.4714
lwrist 0.835987
lhand -19.7803 26.7675
lfingers 7.12502
lthumb 6.55189 56.6461
rfemur -3.65954 -3.35357 21.3266
rtibia 23.8177
rfoot -15.5509 -14.1406
rtoes 3.47774
lfemur -21.1763 1.483 -15.9139
ltibia 26.0216
lfoot -5.71658 5.03522
ltoes 7.15191
63
root -14.2803 17.9052 -9.3307 -0.732476 52.6528 -1.62495
lowerback 13.3505 2.17847 3.42359
upperback 1.73934 3.55512 2.00521
thorax -5.56588 1.71337 -0.454913
lowerneck -16.7062 -2.68829 -9.92007
upperneck 34.5546 -2.07313 5.72959
head 15.0167 -1.16225 3.84815
rclavicle 4.55217e-014 1.59028e-014
rhumerus -24.4023 -11.5847 -74.2786
rradius 28.0009
rwrist 5.97882
rhand -17.3977 5.70451
rfingers 7.12502
rthumb 8.85158 -24.0898
lclavicle 4.55217e-014 1.59028e-014
lhumerus -27.9998 -4.13371 82.7794
lradius 37.8249
lwrist 0.624687
lhand -20.1511 25.6156
lfingers 7.12502
lthumb 6.19397 55.5051
rfemur -3.6608 -3.65075 21.3107
rtibia 23.6726
rfoot -15.471 -14.0489
rtoes 3.69651
lfemur -21.3231 1.08914 -15.4407
ltibia 25.422
lfoot -5.29659 5.93188
ltoes 6.99702
64
root -14.2374 17.9035 -9.34213 -0.99527 53.1456 -1.97009
lowerback 13.3731 2.20604 3.68667
upperback 1.70969 3.632 1.99717
thorax -5.59081 1.74474 -0.625475
lowerneck -16.797 -2.76162 -10.0248
upperneck 34.6481 -2.12027 5.70955
head 15.0907 -1.19751 3.85551
rclavicle -5.94366e-014 2.06736e-014
rhumerus -24.5391 -11.3052 -74.3311
rradius 28.0647
rwrist 5.9144
rhand -17.4755 5.80824
rfingers 7.12502
rthumb 8.77654 -23.9893
lclavicle -5.94366e-014 2.06736e-014
lhumerus -27.9261 -3.55967 82.5043
lradius 37.2468
lwrist 0.383277
lhand -20.6304 25.7338
lfingers 7.12502
lthumb 5.73117 55.6362
rfemur -3.4817 -3.89406 21.4098
rtibia 23.483
rfoot -15.385 -14.2619
rtoes 4.35559
lfemur -21.3755 0.719777 -14.906
ltibia 24.8588
lfoot -4.99176 6.58696
ltoes 6.93377
65
root -14.1914 17.9073 -9.33546 -0.988727 53.949 -1.8874
lowerback 13.2599 2.11334 3.49912
upperback 1.75323 3.47653 2.00746
thorax -5.49897 1.6755 -0.476849
lowerneck -16.7865 -2.75908 -10.1285
upperneck 34.6232 -2.03992 5.61163
head 15.0701 -1.18875 3.84498
rclavicle 7.76254e-014 -3.18055e-015
rhumerus -24.6106 -10.7438 -74.4342
rradius 28.214
rwrist 5.6463
rhand -17.1659 5.85832
rfingers 7.12502
rthumb 9.07527 -23.9264
lclavicle 7.76254e-014 -3.18055e-015
lhumerus -27.919 -2.82159 82.2393
lradius 36.8712
lwrist 0.246276
lhand -20.478 26.5863
lfingers 7.12502
lthumb 5.87832 56.4848
rfemur -3.05192 -3.89032 21.3471
rtibia 23.2546
rfoot -15.4148 -15.0148
rtoes 4.52269
lfemur -21.3038 0.360503 -14.669
ltibia 24.346
lfoot -5.15483 7.07204
ltoes 9.47709
66
root -14.1447 17.9096 -9.33454 -0.777963 54.6545 -1.66129
lowerback 13.1299 2.08121 3.2718
upperback 1.75962 3.39232 1.96801
thorax -5.4334 1.63987 -0.37085
lowerneck -16.7059 -2.73938 -10.1108
upperneck 34.5666 -1.9793 5.50515
head 15.0173 -1.17256 3.80419
rclavicle 5.1684e-014 -7.95139e-016
rhumerus -24.6795 -10.6539 -74.4764
rradius 28.2112
rwrist 5.90156
rhand -17.0664 6.14111
rfingers 7.12502
rthumb 9.17125 -23.6395
lclavicle 5.1684e-014 -7.95139e-016
lhumerus -28.0009 -2.27476 81.9619
lradius 36.6347
lwrist 0.377425
lhand -19.8723 26.7709
lfingers 7.12502
lthumb 6.46306 56.6523
rfemur -2.74406 -3.99343 21.1547
rtibia 23.0126
rfoot -15.4216 -15.5588
rtoes 3.95727
lfemur -21.3377 0.167033 -14.5903
ltibia 23.8493
lfoot -5.33099 7.72715
ltoes 11.5896
67
root -14.0975 17.9032 -9.3373 -0.867676 55.1818 -1.79955
lowerback 12.9871 2.09843 3.23836
upperback 1.78639 3.40171 1.9478
thorax -5.32648 1.64743 -0.368163
lowerneck -16.7068 -2.73544 -10.1055
upperneck 34.5594 -1.97723 5.52961
head 15.0139 -1.16546 3.8143
rclavicle -1.38155e-014 0
rhumerus -24.6676 -10.6679 -74.6064
rradius 28.1298
rwrist 6.10628
rhand -17.1457 6.21933
rfingers 7.12502
rthumb 9.09474 -23.5646
lclavicle -1.38155e-014 0
lhumerus -27.974 -1.77093 81.728
lradius 36.193
lwrist 0.546173
lhand -20.2615 27.0428
lfingers 7.12502
lthumb 6.0874 56.9353
rfemur -2.50533 -4.1012 21.1642
rtibia 22.8395
rfoot -15.4267 -15.9508
rtoes 3.63501
lfemur -21.3598 0.0504654 -14.2866
ltibia 23.3524
lfoot -5.10762 8.53392
ltoes 11.031
68
root -14.0495 17.8944 -9.32846 -1.04337 55.8183 -1.83505
lowerback 12.9361 2.0458 2.97322
upperback 1.86981 3.29171 1.95398
thorax -5.22834 1.60176 -0.190811
lowerneck -16.8324 -2.71117 -10.186
upperneck 34.659 -1.91714 5.59723
head 15.086 -1.1409 3.87381
rclavicle -4.27387e-015 3.49861e-014
rhumerus -24.6429 -10.3415 -74.8598
rradius 28.207
rwrist 5.77878
rhand -17.1267 6.06696
rfingers 7.12502
rthumb 9.11312 -23.7162
lclavicle -4.27387e-015 3.49861e-014
lhumerus -27.8965 -0.99018 81.5132
lradius 35.6005
lwrist 0.887113
lhand -21.1394 27.8619
lfingers 7.12502
lthumb 5.23978 57.7772
rfemur -2.02579 -4.27135 21.1395
rtibia 22.7237
rfoot -15.4475 -16.4146
rtoes 2.91734
lfemur -21.1638 -0.133804 -14.0029
ltibia 22.8988
lfoot -4.91569 9.14975
ltoes 10.985
